<?xml version="1.0" encoding="utf-8"?>
<!-- Generator: Adobe Illustrator 16.0.0, SVG Export Plug-In . SVG Version: 6.00 Build 0)  -->
<!DOCTYPE svg PUBLIC "-//W3C//DTD SVG 1.1//EN" "http://www.w3.org/Graphics/SVG/1.1/DTD/svg11.dtd">
<svg version="1.1" id="Layer_1" xmlns="http://www.w3.org/2000/svg" xmlns:xlink="http://www.w3.org/1999/xlink" x="0px" y="0px"
	 width="154.493px" height="55.403px" viewBox="0 0 154.493 55.403" enable-background="new 0 0 154.493 55.403"
	 xml:space="preserve">
<g>
	<g>
		<path fill="#FFFFFF" d="M151.129,36.805c0.005,2.354-1.91,4.281-4.261,4.281l-15.607,0.083c-2.366,0-4.294-1.921-4.305-4.276
			l-0.054-15.834c-0.013-2.366,1.907-4.295,4.264-4.305l15.606-0.062c2.354-0.008,4.284,1.915,4.29,4.269L151.129,36.805z
			 M146.858,39.874c1.685-0.014,3.044-1.391,3.041-3.064l-0.062-15.839c0-1.687-1.378-3.051-3.064-3.046l-15.606,0.067
			c-1.679,0-3.038,1.377-3.036,3.062l0.06,15.839c0.005,1.676,1.372,3.04,3.059,3.04L146.858,39.874z"/>
		<path fill="#FFFFFF" d="M120.26,36.923c0.01,2.349-1.905,4.282-4.256,4.297l-15.61,0.047c-2.358,0.021-4.289-1.902-4.299-4.259
			l-0.052-15.844c-0.016-2.354,1.9-4.292,4.264-4.292l15.607-0.057c2.351-0.016,4.284,1.902,4.289,4.253L120.26,36.923z
			 M116.004,39.979c1.674-0.003,3.046-1.375,3.033-3.054l-0.057-15.834c-0.003-1.694-1.389-3.054-3.06-3.054l-15.614,0.06
			c-1.682,0.008-3.054,1.388-3.043,3.056l0.057,15.854c0.01,1.674,1.385,3.044,3.061,3.03L116.004,39.979z"/>
		<path fill="#FFFFFF" d="M89.396,37.278c0.016,2.358-1.9,4.274-4.259,4.279l-15.602,0.069c-2.366,0.003-4.29-1.9-4.298-4.261
			l-0.059-15.85c-0.013-2.354,1.895-4.289,4.264-4.3l15.597-0.046c2.363-0.013,4.287,1.9,4.297,4.261L89.396,37.278z M85.132,40.345
			c1.687-0.005,3.046-1.388,3.038-3.066l-0.057-15.847c-0.011-1.681-1.38-3.046-3.066-3.046L69.443,18.45
			c-1.679,0.008-3.046,1.383-3.044,3.059l0.057,15.85c0.011,1.679,1.391,3.056,3.069,3.043L85.132,40.345z"/>
		<path fill="#FFFFFF" d="M58.469,21.54c-0.005-1.138-0.442-2.214-1.246-3.021c-0.818-0.801-1.895-1.24-3.04-1.24l-15.603,0.064
			c-2.363,0-4.266,1.928-4.256,4.284l0.057,15.852c0.008,2.358,1.921,4.269,4.295,4.261l15.597-0.062
			c1.148-0.013,2.22-0.448,3.03-1.259c0.798-0.819,1.23-1.883,1.229-3.023L58.469,21.54z M56.425,39.557
			c-0.577,0.572-1.339,0.899-2.152,0.904L38.67,40.52c-0.107,0-0.211-0.007-0.313-0.018c-0.721-0.075-1.37-0.394-1.852-0.881
			c-0.559-0.548-0.903-1.305-0.903-2.149l-0.062-15.85l0,0l0,0c0-0.03,0.005-0.057,0.005-0.082c0.036-1.635,1.393-2.969,3.038-2.969
			l15.607-0.066c0.813-0.006,1.578,0.312,2.162,0.888c0.072,0.075,0.145,0.149,0.203,0.224c0.451,0.539,0.698,1.213,0.701,1.932
			l0.059,15.852C57.316,38.208,57.007,38.973,56.425,39.557z"/>
	</g>
	<path fill="#FFFFFF" d="M6.205,3.927l0.019,5.412c0.01,1.065,0.34,1.594,1.001,1.594c0.667-0.008,1.005-0.538,1.005-1.604
		L8.203,3.909l2.229-0.003l0.021,5.33c0,1.176-0.31,2.046-0.94,2.618c-0.546,0.497-1.311,0.741-2.278,0.76
		c-0.971-0.008-1.73-0.245-2.281-0.744c-0.636-0.559-0.963-1.43-0.963-2.605L3.97,3.927H6.205z"/>
	<path fill="#FFFFFF" d="M13.27,12.261l0.118-1.887c0.607,0.35,1.246,0.53,1.931,0.522c0.783-0.008,1.167-0.319,1.161-0.924
		c0-0.258-0.09-0.472-0.263-0.61c-0.126-0.091-0.383-0.214-0.774-0.368l-0.492-0.201c-0.688-0.258-1.174-0.598-1.444-1.001
		c-0.268-0.379-0.386-0.884-0.396-1.507c0-0.801,0.283-1.426,0.87-1.882c0.552-0.448,1.277-0.672,2.204-0.672
		c0.86-0.003,1.578,0.103,2.137,0.332l-0.093,1.674c-0.553-0.283-1.127-0.412-1.742-0.423c-0.729,0.013-1.098,0.278-1.098,0.813
		c0,0.227,0.064,0.402,0.209,0.531c0.137,0.136,0.389,0.288,0.77,0.445l1.03,0.463c0.966,0.43,1.437,1.153,1.439,2.173
		c0.008,0.909-0.294,1.612-0.881,2.102c-0.598,0.491-1.403,0.733-2.426,0.741C14.878,12.583,14.114,12.479,13.27,12.261"/>
	<path fill="#FFFFFF" d="M27.523,10.214l0.098,1.996c-0.703,0.219-1.398,0.332-2.085,0.332c-1.274,0.002-2.281-0.36-3.033-1.097
		c-0.796-0.791-1.189-1.919-1.197-3.368c-0.003-1.318,0.343-2.354,1.051-3.136c0.743-0.826,1.789-1.233,3.144-1.246
		c0.73,0,1.416,0.116,2.054,0.379l-0.12,1.892c-0.552-0.321-1.098-0.476-1.658-0.481c-1.414,0.008-2.119,0.873-2.116,2.629
		c0.002,0.755,0.2,1.383,0.589,1.849c0.407,0.494,0.958,0.747,1.648,0.747C26.519,10.714,27.049,10.541,27.523,10.214"/>
	<path fill="#FFFFFF" d="M37.087,9.354l0.018,2.989l-2.286,0.008l-0.025-8.54l2.812-0.008c2.075-0.008,3.11,0.927,3.12,2.819
		c0,0.839-0.239,1.516-0.726,1.997C39.51,9.1,38.862,9.347,38.033,9.354H37.087z M36.987,7.722h0.407
		c0.309,0,0.556-0.103,0.76-0.309c0.188-0.195,0.29-0.474,0.29-0.806c0-0.796-0.375-1.159-1.117-1.159h-0.353L36.987,7.722z"/>
	<path fill="#FFFFFF" d="M47.229,12.308l-0.646-2.413c-0.154-0.615-0.474-0.919-0.955-0.919h-0.126l0.013,3.334l-2.276,0.014
		l-0.036-8.546l3.389-0.002c1.779-0.019,2.678,0.746,2.688,2.283c0.006,1.04-0.535,1.694-1.622,1.965v0.03
		c0.289,0.101,0.489,0.229,0.618,0.412c0.196,0.225,0.376,0.615,0.53,1.182l0.783,2.645L47.229,12.308z M45.406,7.344l0.659-0.008
		c0.263,0.008,0.469-0.075,0.659-0.25c0.181-0.188,0.268-0.406,0.268-0.669c0-0.675-0.327-1.01-0.968-0.999h-0.623L45.406,7.344z"/>
	<path fill="#FFFFFF" d="M51.819,8.023c-0.002-1.483,0.395-2.616,1.188-3.422c0.68-0.675,1.534-1.009,2.569-1.024
		c1.04,0.01,1.893,0.337,2.585,1.004c0.79,0.796,1.185,1.929,1.187,3.414c0.013,1.475-0.378,2.607-1.155,3.406
		c-0.69,0.688-1.543,1.024-2.58,1.027c-1.04,0.008-1.895-0.332-2.577-1.004C52.234,10.637,51.83,9.496,51.819,8.023 M54.144,8.013
		c0,1.861,0.486,2.786,1.432,2.783h0.021c0.939-0.008,1.411-0.935,1.406-2.799c-0.011-0.857-0.124-1.537-0.361-2.018
		c-0.252-0.516-0.602-0.755-1.065-0.747c-0.484-0.008-0.829,0.252-1.073,0.747C54.262,6.476,54.131,7.147,54.144,8.013"/>
	<path fill="#FFFFFF" d="M65.683,8.898V7.295l3.271-0.013l0.021,4.621c-0.639,0.321-1.483,0.484-2.547,0.491
		c-1.356,0-2.448-0.368-3.267-1.102c-0.881-0.782-1.323-1.872-1.329-3.262c0-1.347,0.376-2.423,1.148-3.211
		c0.809-0.845,1.982-1.271,3.522-1.271c0.813-0.006,1.545,0.101,2.188,0.329l-0.108,1.828c-0.489-0.329-1.117-0.484-1.854-0.484
		c-0.85,0.003-1.491,0.263-1.921,0.78c-0.412,0.487-0.618,1.167-0.612,2.029c0,0.813,0.19,1.446,0.568,1.931
		c0.34,0.456,0.78,0.688,1.337,0.675c0.334,0.01,0.576-0.039,0.736-0.145l-0.006-1.611L65.683,8.898z"/>
	<path fill="#FFFFFF" d="M75.848,12.202l-0.639-2.413c-0.159-0.62-0.474-0.914-0.958-0.921h-0.128l0.021,3.342l-2.286,0.005
		l-0.031-8.532L75.2,3.667c1.797-0.018,2.692,0.754,2.703,2.297c0,1.024-0.541,1.676-1.619,1.956V7.94
		c0.28,0.104,0.486,0.237,0.623,0.415c0.185,0.229,0.354,0.62,0.522,1.171l0.774,2.665L75.848,12.202z M74.028,7.235l0.654-0.016
		c0.265,0.016,0.476-0.064,0.667-0.247c0.18-0.178,0.268-0.396,0.26-0.664c-0.003-0.675-0.316-1.007-0.966-1.007h-0.618
		L74.028,7.235z"/>
	<path fill="#FFFFFF" d="M85.652,12.163l-0.458-1.812l-2.481,0.008l-0.536,1.823h-2.193l2.794-8.54l2.505-0.016l2.724,8.537H85.652z
		 M84.761,8.713l-0.752-3.331l-0.021-0.005l-0.886,3.339L84.761,8.713z"/>
	<polygon fill="#FFFFFF" points="93.981,12.125 92.238,5.652 92.258,12.147 90.271,12.147 90.238,3.605 93.592,3.598 94.741,8.95 
		94.774,8.95 95.982,3.593 99.251,3.577 99.28,12.109 97.25,12.125 97.23,5.642 95.408,12.125 	"/>
	<path fill="#FFFFFF" d="M106.873,12.094l-0.036-8.551h3.208c1.786-0.018,2.677,0.659,2.688,1.988c0,1.135-0.53,1.828-1.591,2.101
		l-0.006,0.016c1.164,0.206,1.735,0.867,1.743,2.014c0,0.808-0.249,1.426-0.772,1.846c-0.463,0.384-1.122,0.566-1.975,0.566
		L106.873,12.094z M109.05,6.96l0.442-0.013c0.7,0,1.051-0.324,1.051-0.938c-0.005-0.628-0.314-0.93-0.927-0.924h-0.577L109.05,6.96
		z M109.055,10.487l0.607-0.003c0.686-0.008,1.025-0.329,1.02-0.979c0-0.682-0.312-1.02-0.927-1.012l-0.705-0.008L109.055,10.487z"
		/>
	<path fill="#FFFFFF" d="M115.25,7.784c-0.005-1.48,0.379-2.605,1.169-3.414c0.675-0.678,1.532-1.022,2.58-1.022
		c1.032-0.01,1.895,0.335,2.574,1.004c0.799,0.793,1.195,1.921,1.205,3.401c0,1.476-0.392,2.621-1.182,3.403
		c-0.677,0.692-1.537,1.043-2.566,1.043c-1.048,0.003-1.908-0.335-2.585-1.015C115.646,10.395,115.255,9.262,115.25,7.784
		 M117.549,7.781c0.008,1.849,0.491,2.783,1.438,2.775h0.016c0.947-0.005,1.416-0.93,1.406-2.783c0-0.86-0.124-1.547-0.366-2.036
		c-0.231-0.508-0.587-0.747-1.056-0.747c-0.476,0-0.839,0.25-1.081,0.752C117.675,6.236,117.542,6.913,117.549,7.781"/>
	<path fill="#FFFFFF" d="M130.448,12.001l-0.456-1.815l-2.497,0.003l-0.538,1.823l-2.176,0.01l2.775-8.558l2.513-0.011l2.74,8.538
		L130.448,12.001z M129.552,8.543l-0.742-3.334l-0.028-0.005l-0.891,3.357L129.552,8.543z"/>
	<path fill="#FFFFFF" d="M139.044,11.965l-0.639-2.41c-0.17-0.62-0.479-0.916-0.963-0.916h-0.123l0.01,3.331l-2.275,0.008
		l-0.031-8.54l3.375-0.005c1.787-0.008,2.69,0.755,2.69,2.291c0.008,1.035-0.53,1.689-1.611,1.957v0.036
		c0.278,0.098,0.479,0.224,0.623,0.401c0.188,0.222,0.36,0.623,0.53,1.18l0.765,2.659L139.044,11.965z M137.227,6.999h0.659
		c0.249-0.011,0.468-0.086,0.651-0.269c0.177-0.172,0.275-0.391,0.275-0.659c0-0.672-0.33-1.004-0.961-1.004h-0.639L137.227,6.999z"
		/>
	<path fill="#FFFFFF" d="M143.911,11.941l-0.026-8.526l3.26-0.019c1.236-0.008,2.199,0.379,2.881,1.136
		c0.683,0.76,1.022,1.784,1.027,3.066c0.005,2.878-1.391,4.33-4.225,4.333L143.911,11.941z M146.173,5.086l0.023,5.208l0.497,0.011
		c1.315-0.016,1.964-0.884,1.948-2.604c0-1.007-0.221-1.722-0.677-2.14c-0.357-0.321-0.888-0.476-1.609-0.481L146.173,5.086z"/>
	<polygon fill-rule="evenodd" clip-rule="evenodd" fill="#FFFFFF" points="19.779,26.024 9.498,33.556 8.662,32.562 18.043,23.883 	
		"/>
	<polygon fill-rule="evenodd" clip-rule="evenodd" fill="#FFFFFF" points="20.196,26.146 21.596,25.657 18.833,22.222 
		18.036,23.419 	"/>
	<path fill-rule="evenodd" clip-rule="evenodd" fill="#FFFFFF" d="M18.887,22.009c0.417,0.51,2.654,3.249,2.915,3.718
		c2.225-1.262,4.237-2.712,2.672-4.735C22.912,18.979,20.955,19.926,18.887,22.009"/>
	<path fill-rule="evenodd" clip-rule="evenodd" fill="#FFFFFF" d="M8.177,33.617c-0.587,0.613-2.307,2.067-2.618,3.414
		c-0.307,1.352-0.023,2.489,1.434,2.569c-2.088-2.322-0.072-3.985,1.534-5.666C8.412,33.828,8.298,33.726,8.177,33.617"/>
	<polygon fill="#FFFFFF" points="39.819,18.894 40.185,20.229 40.849,19.833 	"/>
	<polygon fill="#FFFFFF" points="41.496,21.309 41.271,20.953 41.035,21.1 41.261,21.447 	"/>
	<polygon fill="#FFFFFF" points="48.838,33.641 48.614,33.277 48.367,33.409 48.598,33.785 	"/>
	<polygon fill="#FFFFFF" points="50.033,35.87 49.674,34.539 49,34.936 	"/>
	<path fill="#FFFFFF" d="M42.358,19.385c-3.481,1.068-5.999,4.271-5.981,8.018c0.021,4.619,3.862,8.339,8.603,8.318
		c2.345,0,4.454-0.927,5.993-2.399l-1.215-0.131c-1.309,1.017-2.966,1.645-4.778,1.645c-4.233,0.028-7.683-3.318-7.696-7.433
		c-0.013-3.162,1.985-5.881,4.812-6.975L42.358,19.385z"/>
	<polygon fill="#FFFFFF" points="48.691,39.106 47.882,37.801 42.026,37.816 41.194,39.127 	"/>
	<polygon fill="#FFFFFF" points="51.444,40.057 50.643,39.344 39.279,39.387 38.434,40.101 	"/>
	<polygon fill="#FFFFFF" points="45.643,37.516 44.963,35.582 44.227,37.521 	"/>
	<path fill="#FFFFFF" d="M47.662,28.219c-0.154-0.358-0.332-0.724-0.522-1.092c-0.096-0.183-0.193-0.363-0.291-0.536l-1.571,0.894
		l0.938,1.561L47.662,28.219z M44.366,30.09l1.416-0.806l-0.927-1.561l-1.534,0.868c0.021,0.028,0.033,0.057,0.051,0.085
		C43.691,29.182,44.026,29.649,44.366,30.09 M40.146,27.184l1.432-0.816c-0.271-0.633-0.484-1.243-0.62-1.808l-0.948,0.53
		C39.948,25.775,39.995,26.478,40.146,27.184 M42.208,26.576c0.247,0.527,0.53,1.058,0.854,1.604l1.54-0.878l-0.93-1.555
		L42.208,26.576z M44.415,22.596c0.451,0.422,0.889,0.903,1.301,1.424l1.434-0.816c-0.554-0.477-1.148-0.857-1.789-1.141
		L44.415,22.596z M48.925,25.417l-1.658,0.94c0.096,0.183,0.201,0.362,0.291,0.54c0.181,0.348,0.363,0.713,0.525,1.079l1.562-0.881
		C49.474,26.524,49.227,25.955,48.925,25.417 M46.016,24.416c0.363,0.494,0.698,1.001,1.007,1.517l1.652-0.935
		c-0.334-0.538-0.726-1.022-1.143-1.439L46.016,24.416z M44.098,25.502l0.93,1.563l1.567-0.894
		c-0.321-0.541-0.659-1.051-1.004-1.514L44.098,25.502z M49.051,32.889c0.127-0.09,0.258-0.188,0.382-0.291l-0.278-0.18
		C49.134,32.585,49.093,32.75,49.051,32.889 M40.893,21.769c-0.091,0.057-0.178,0.127-0.258,0.191l0.173,0.107
		C40.836,21.965,40.865,21.867,40.893,21.769 M50.983,23.924c-0.971-1.619-2.528-2.711-4.259-3.164l0.227,0.394l-1.065,0.605
		c0.612,0.309,1.191,0.708,1.72,1.182l1.604-0.906l0.25,0.422l-1.483,0.845c0.412,0.433,0.793,0.914,1.133,1.452l1.663-0.942
		l0.248,0.423l-1.661,0.935c0.307,0.543,0.546,1.106,0.721,1.679l1.496-0.848l0.244,0.43l-1.604,0.904
		c0.17,0.682,0.247,1.369,0.242,2.036l1.02-0.579l0.208,0.373c0.008-0.025,0.016-0.051,0.023-0.082
		C52.177,27.314,51.919,25.494,50.983,23.924 M49.165,32.354c0.382-0.629,0.623-1.347,0.736-2.104l-0.875,0.491
		C49.157,31.336,49.204,31.88,49.165,32.354 M49.773,27.588l-1.488,0.842c0.252,0.603,0.469,1.22,0.628,1.815l1.051-0.596
		C49.997,28.978,49.935,28.28,49.773,27.588 M40.097,24.482l0.747-0.425c-0.099-0.494-0.135-0.95-0.113-1.369
		C40.426,23.257,40.215,23.852,40.097,24.482 M42.898,21.501c0.382,0.188,0.757,0.443,1.128,0.744l0.739-0.42
		C44.16,21.628,43.537,21.517,42.898,21.501 M47.388,33.771c0.149-0.057,0.299-0.113,0.448-0.183
		c-0.152-0.033-0.299-0.074-0.464-0.139L47.388,33.771z M41.297,23.795l0.911-0.515l-0.938-1.573l0.423-0.239l0.939,1.568
		l0.924-0.523c-0.587-0.468-1.169-0.774-1.701-0.885l0.1-0.464c-0.185,0.085-0.373,0.181-0.553,0.278
		c-0.173,0.105-0.348,0.216-0.51,0.326l0.463,0.147C41.189,22.421,41.173,23.064,41.297,23.795 M42.265,21.038
		c-0.098,0.033-0.196,0.072-0.291,0.115c0.095,0.021,0.201,0.055,0.301,0.088L42.265,21.038z M43.846,25.08l1.446-0.818
		c-0.445-0.544-0.888-1.02-1.328-1.414l-1.081,0.615L43.846,25.08z M43.28,34.014c1.207,0.283,2.502,0.255,3.732-0.115
		c-0.847-0.031-1.688-0.237-2.494-0.593L43.28,34.014z M45.329,21.504l1.336-0.76c-1.4-0.345-2.917-0.283-4.325,0.258
		C43.382,20.953,44.389,21.128,45.329,21.504 M49.731,32.341c0.912-0.84,1.578-1.897,1.926-3.09l-1.23,0.697
		C50.344,30.806,50.115,31.617,49.731,32.341 M48.573,31.004l-0.891,0.508l0.927,1.565l-0.417,0.244l-0.938-1.57l-0.865,0.499
		c0.629,0.51,1.205,0.827,1.669,0.884l-0.047,0.375c0.145-0.069,0.289-0.148,0.428-0.231c0.159-0.085,0.304-0.178,0.448-0.275
		l-0.351-0.131C48.717,32.44,48.722,31.787,48.573,31.004 M43.972,33.038c-0.595-0.322-1.161-0.726-1.682-1.207l-1.596,0.9
		l-0.245-0.419l1.48-0.84c-0.417-0.438-0.798-0.919-1.128-1.452l-1.691,0.961l-0.239-0.425l1.684-0.958
		c-0.008-0.008-0.01-0.019-0.018-0.028c-0.299-0.538-0.528-1.092-0.703-1.647l-1.501,0.856l-0.239-0.427l1.609-0.912
		c-0.168-0.692-0.234-1.385-0.204-2.062l-1.076,0.61l-0.241-0.42l1.369-0.777c0.124-0.989,0.464-1.939,1.015-2.791
		c-1.188,0.927-2.039,2.196-2.42,3.656c-0.469,1.758-0.217,3.581,0.726,5.148c0.979,1.653,2.56,2.747,4.323,3.19l-0.214-0.389
		L43.972,33.038z M43.931,30.329c-0.348-0.447-0.675-0.927-0.979-1.387c-0.019-0.036-0.039-0.075-0.055-0.106l-1.668,0.945
		c0.335,0.533,0.724,1.012,1.144,1.439L43.931,30.329z M40.98,29.361l1.655-0.939c-0.318-0.549-0.609-1.079-0.85-1.604l-1.508,0.853
		c0.159,0.562,0.386,1.12,0.689,1.666C40.97,29.344,40.978,29.352,40.98,29.361 M41.395,24.305c0.134,0.566,0.34,1.183,0.617,1.815
		l1.406-0.798l-0.963-1.62L41.395,24.305z M45.061,33.002c0.716,0.271,1.465,0.407,2.206,0.399
		c-0.425-0.201-0.878-0.513-1.331-0.898L45.061,33.002z M45.993,31.9l1.01-0.577l-0.968-1.619l-1.365,0.774
		C45.113,31.024,45.56,31.501,45.993,31.9 M45.54,32.152c-0.438-0.422-0.886-0.909-1.303-1.432l-1.493,0.85
		c0.536,0.481,1.123,0.878,1.743,1.185L45.54,32.152z M48.47,30.5c-0.147-0.569-0.351-1.18-0.613-1.831l-1.397,0.793l0.963,1.622
		L48.47,30.5z"/>
	<path fill="#FFFFFF" d="M142.042,24.822c0.582-0.008,1.05-0.476,1.045-1.053c0-0.595-0.469-1.061-1.053-1.056
		c-0.59,0-1.046,0.472-1.046,1.056C140.988,24.356,141.455,24.822,142.042,24.822"/>
	<polygon fill="#FFFFFF" points="144.15,25.098 144.471,30.415 143.807,30.415 143.375,26.447 143.411,35.291 142.386,35.291 
		142.128,30.69 141.913,35.291 140.898,35.291 140.868,26.447 140.46,30.433 139.798,30.433 140.061,25.116 	"/>
	<path fill="#FFFFFF" d="M137.207,24.879c0.581-0.002,1.05-0.476,1.045-1.058c0-0.579-0.474-1.048-1.053-1.043
		c-0.577,0-1.048,0.469-1.048,1.048C136.151,24.416,136.629,24.879,137.207,24.879"/>
	<polygon fill="#FFFFFF" points="138.55,25.183 140.399,29.717 139.861,30.019 138.288,26.993 138.056,28.347 139.801,31.517 
		138.061,31.524 137.721,35.309 136.887,35.309 136.521,31.526 134.776,31.526 136.5,28.354 136.258,27.009 134.714,30.039 
		134.17,29.74 135.97,25.188 	"/>
	<path fill="#FFFFFF" d="M146.639,24.814c0.582,0,1.051-0.474,1.046-1.062c-0.006-0.585-0.472-1.048-1.051-1.054
		c-0.59,0-1.061,0.484-1.056,1.071C145.579,24.341,146.052,24.81,146.639,24.814"/>
	<polygon fill="#FFFFFF" points="148.746,25.09 149.062,30.422 148.409,30.415 147.973,26.447 148.004,35.283 146.99,35.291 
		146.732,30.685 146.521,35.291 145.491,35.291 145.458,26.447 145.056,30.438 144.397,30.433 144.667,25.104 	"/>
	<path fill="#FFFFFF" d="M131.65,24.979c0.582-0.005,1.043-0.479,1.04-1.068c0-0.577-0.468-1.059-1.053-1.045
		c-0.579,0-1.053,0.471-1.053,1.058C130.586,24.514,131.063,24.975,131.65,24.979"/>
	<polygon fill="#FFFFFF" points="132.989,25.271 134.834,29.814 134.299,30.116 132.726,27.096 132.5,28.445 134.24,31.617 
		132.512,31.617 132.16,35.401 131.326,35.404 130.953,31.625 129.209,31.638 130.942,28.455 130.698,27.104 129.15,30.137 
		128.61,29.835 130.415,25.281 	"/>
	<path fill="#FFFFFF" d="M117.093,27.824c-0.195-2.423-1.658-4.503-3.466-5.79c-1.344-0.963-2.577-1.375-4.225-1.635
		c-3.046-0.543-6.15,1.053-8.046,2.906c-0.479,0.415-0.801,1.046-1.199,1.471c-0.494,0.77-0.61,1.753-0.868,2.605
		c-0.183,1.191-0.203,2.348,0.034,3.444c0.685,2.575,2.271,4.187,4.354,5.528c1.3,0.639,2.788,1.246,4.39,1.024
		c0.149-0.021,0.175-0.173,0.236-0.288c-0.005-0.093-0.013-0.149-0.021-0.214c-0.36-0.126-0.999,0.013-1.305-0.288l-0.791-0.31
		c-0.021-0.087,0.072-0.108,0.149-0.149c0.685,0.137,1.411,0.157,2.094,0.083c0.11-0.093,0.142-0.273,0.095-0.433l-1.318-0.239
		l-0.922-0.255c-0.01-0.075,0.06-0.116,0.093-0.173c0.665-0.057,1.452,0.28,2.07-0.137c0.046-0.126,0.033-0.299,0.013-0.419
		c-0.774-0.17-1.856,0.033-2.469-0.631c-0.023-0.072-0.049-0.113-0.069-0.135c0.224-0.332,0.867-0.342,0.908-0.815
		c0-0.105-0.015-0.181-0.069-0.201c-1.413-0.494-3.216,0.461-4.405-0.922c-0.875-0.811-1.282-2.217-1.271-3.424
		c-0.021-0.582,0.203-1.115,0.345-1.606c0.695-1.967,2.225-3.677,4.402-4.408c1.37-0.571,2.812-0.571,4.264-0.378
		c0.824,0.049,1.383,0.348,1.988,0.777c1.572,1.02,2.605,3.013,2.935,4.912c0.104,1.063,0.108,2.176-0.371,3.007
		c-0.658,0.68-1.74,0.868-2.569,1.309c-0.401,0.018-0.859,0.03-1.027,0.337c-0.059,0.069-0.074,0.124-0.115,0.162
		c0.19,0.348,0.689,0.392,1.092,0.481c0.139,0,0.288,0.006,0.381,0.077c0.03,0.214-0.193,0.31-0.353,0.436
		c-0.193,0.093-0.379,0.105-0.559,0.206l-1.8,0.535l-0.142,0.271l0.064,0.247l1.879-0.036c0.049,0.072-0.062,0.105-0.11,0.129
		c-0.649,0.242-1.267,0.337-1.875,0.59l0.106,0.463l1.707-0.108c0.03,0.003,0.077,0.036,0.077,0.064l-1.713,0.665l-0.079,0.285
		l0.064,0.211c0.074,0.165,0.316,0.155,0.491,0.16c1.897-0.005,3.77-0.963,4.807-2.314C116.743,33.09,117.361,30.479,117.093,27.824
		"/>
	<path fill="#FFFFFF" d="M113.7,26.313c-0.066-0.08-0.077-0.176-0.118-0.245c-0.011-0.013-0.064-0.013-0.118-0.008
		c-0.023,0.031,0,0-0.044,0.036c0.113,0.433,0.113,0.969-0.069,1.398c0.005,0.008-0.031,0.021-0.08,0.038
		c-0.587-0.597-1.264-1.223-2.212-1.333c-0.636-0.08-1.308,0.277-1.846-0.055c-0.033,0-0.049,0.014-0.054,0.044
		c0.195,0.69,0.522,1.347,1.23,1.658c0.654,0.294,1.493,0.662,1.728,1.509c0.069,0.335,0.038,0.724-0.082,0.98
		c-0.14,0.286-0.538,0.562-0.899,0.528c-0.34-0.072-0.636-0.26-0.808-0.505c-0.019-0.113-0.031-0.203-0.031-0.285
		c0.021-0.072,0.139-0.191,0.242-0.157c0.278,0.03,0.26,0.378,0.461,0.463c0.033-0.016,0.051-0.021,0.085-0.057
		c0.103-0.234,0.062-0.53-0.14-0.697c-0.244-0.201-0.474-0.302-0.793-0.25c-0.35,0.145-0.442,0.445-0.559,0.705
		c-0.09,0.404,0.075,0.783,0.258,1.079c0.44,0.44,1.199,0.541,1.769,0.461c1.071-0.319,1.941-1.065,2.271-2.036
		c0.17-0.688,0.188-1.38,0.201-1.998C114.03,27.163,113.89,26.738,113.7,26.313 M112.691,30.103c0.005-0.136-0.019-0.2,0.046-0.332
		c-0.072-1.475-1.354-2.023-2.355-2.818c0.518-0.242,1.035,0.002,1.54,0.113c0.604,0.337,0.834,0.944,1.182,1.529
		c0.036,0,0.09,0,0.09,0l0.142-0.07l0.021,0.026C113.226,29.176,113.092,29.691,112.691,30.103"/>
	<path fill="#FFFFFF" d="M111.563,29.665c-0.057-0.518-0.365-0.916-0.788-1.187c-0.334-0.098-0.597-0.247-0.896-0.365
		c-0.734-0.407-0.86-1.37-1.406-1.811c-0.036-0.028-0.103-0.054-0.175,0c0.392,0.69,1.249,1.712,0.711,2.649
		c-0.557,0.739-0.417,1.823,0.103,2.67c0.183,0.322,0.417,0.533,0.651,0.757c0.019,0.016,0.055,0.047,0.116,0.041
		c0.036,0,0.093-0.01,0.113-0.079l-0.68-0.791c-0.206-0.636-0.381-1.434-0.075-2.044c0.297-0.368,0.693-0.739,1.224-0.644
		c0.376,0.057,0.644,0.242,0.787,0.525c0.042,0.156,0.099,0.229,0.155,0.329c0.021,0.044,0.095,0.031,0.159-0.013
		C111.553,29.686,111.553,29.679,111.563,29.665"/>
	<path fill="#FFFFFF" d="M109.91,24.369c-0.021-0.195-0.126-0.378-0.293-0.469c-0.154-0.066-0.252-0.198-0.412-0.203
		c-0.041,0.011-0.093,0.044-0.134,0.072c-0.016,0.108,0.085,0.142,0.118,0.237c0.028,0.126-0.036,0.27-0.139,0.35
		c-0.587,0.314-1.215,0.126-1.803,0.162c-0.148,0.016-0.241-0.033-0.313-0.085c-0.06-0.038-0.146-0.113-0.129-0.214
		c0.082-0.082,0.214-0.198,0.252-0.342c-0.036-0.039,0,0-0.059-0.044c-0.268,0.057-0.59,0.173-0.683,0.499
		c0.028,0.17,0.098,0.395,0.283,0.459c1.092,0.183,2.157,0.087,3.177-0.222l0.14-0.188L109.91,24.369z"/>
	<path fill="#FFFFFF" d="M108.747,23.826c-0.373-0.28-0.938-0.193-1.411-0.023c-0.036,0.031-0.072,0.031-0.072,0.031
		c-0.01,0.018-0.016,0.049-0.038,0.095l0.115,0.168c0.407,0.074,0.917,0.144,1.321-0.039c0.041-0.051,0.041-0.103,0.085-0.216
		V23.826z"/>
	<path fill="#FFFFFF" d="M111.157,23.389c-1.406-0.798-3.45-0.94-5.036-0.291c-0.889,0.319-1.396,0.839-1.985,1.405
		c-0.739,0.84-1.3,1.869-1.311,3.072c-0.01,0.164,0.025,0.298-0.018,0.445c0,0.022,0.018,0.046,0.043,0.087
		c0.006-0.005,0.039,0.006,0.064,0.042h0.157c0.546-1.074,1.375-1.764,2.498-2.276c2.064-0.713,4.701-0.705,6.431,0.337
		c0.396,0.219,0.744,0.528,1.059,0.742c0.005,0,0.057-0.016,0.08-0.016c0.002-0.021,0.03-0.044,0.049-0.069l0.022-0.261
		C113.028,25.217,112.225,24.058,111.157,23.389 M103.545,26.532c0.077-0.126,0.099-0.198,0.134-0.365
		c0.289-0.557,0.742-1.409,1.285-1.625c0.013,0.321,0.255,0.538,0.417,0.713l0.023,0.026L103.545,26.532z M110.363,24.418
		c-0.066,0.096-0.159,0.186-0.28,0.273c-1.249,0.667-2.824,0.368-4.111,0.219c-0.031-0.088-0.118-0.152-0.145-0.286
		c-0.008-0.384,0.263-0.702,0.603-0.916c1.236-0.443,2.863-0.562,3.893,0.195l0.085,0.33L110.363,24.418z M112.748,26.241
		c-0.593-0.533-1.267-0.798-1.88-1.092c0.016-0.046,0.041-0.069,0.085-0.088c0.291-0.298,0.302-0.705,0.237-1.055
		c0.795,0.378,1.284,1.289,1.565,2.203L112.748,26.241z"/>
	<path fill="#FFFFFF" d="M110.252,32.863c-0.695-0.147-1.429-0.057-2.099-0.011c-0.329,0.116-0.653,0.108-0.947,0.289
		c-0.093,0.095-0.178,0.29-0.123,0.466c0.072,0.082,0.129,0.134,0.154,0.198c0.932,0.389,2.149,0.272,3.144-0.08
		c0.131-0.09,0.219-0.193,0.247-0.332C110.616,33.134,110.456,32.969,110.252,32.863 M109.714,33.247
		c-0.481,0.03-0.988,0.208-1.4,0.015c0.031-0.033,0.046-0.071,0.108-0.087c0.401-0.206,0.952-0.152,1.341,0h0.013
		C109.776,33.175,109.763,33.192,109.714,33.247"/>
	<path fill="#FFFFFF" d="M108.592,27.588c-0.227-0.104-0.489-0.077-0.639,0.044c-0.17,0.239-0.25,0.488-0.211,0.708
		c0.046,0.1,0.082,0.185,0.159,0.233l0.314,0.137c0.227-0.062,0.497-0.137,0.571-0.404c0.046-0.144,0.036-0.263,0.062-0.398
		C108.839,27.745,108.726,27.634,108.592,27.588 M108.374,28.321l-0.22,0.023c-0.092-0.06-0.139-0.231-0.118-0.353
		c0.021-0.028,0.031-0.044,0.062-0.06c0.104-0.06,0.294-0.142,0.363-0.025c0.019,0.066,0.021,0.107,0.021,0.142L108.374,28.321z"/>
	<path fill="#FFFFFF" d="M108.479,31.18c-0.083-1.581-1.779-2.961-0.763-4.501c-0.013-0.064-0.018-0.108-0.03-0.118
		c-0.021-0.028-0.07-0.028-0.116-0.028c-0.368,0.689-0.513,1.663-1.444,1.992c-0.453,0.16-0.891,0.44-1.007,0.873
		c-0.054,0.294-0.09,0.543,0.021,0.78c0.028,0.033,0.104,0.025,0.137-0.008c0.113-0.353,0.206-0.721,0.587-0.883
		c0.422-0.165,0.886-0.183,1.271-0.077c0.695,0.252,0.997,0.988,1.11,1.655c0.105,0.659-0.134,1.238-0.629,1.594
		c-0.103,0.028-0.103,0.074-0.151,0.113c0,0.036-0.047,0.116,0,0.149c0.396-0.09,0.7-0.431,0.865-0.804
		C108.432,31.658,108.46,31.432,108.479,31.18"/>
	<path fill="#FFFFFF" d="M107.166,30.008c-0.145-0.173-0.355-0.302-0.576-0.286c-0.273,0.039-0.541,0.113-0.693,0.281
		c-0.113,0.208-0.079,0.574,0.121,0.744c0.108,0.118,0.332,0.115,0.505,0.069l-0.036-0.401c0.013-0.016,0.031-0.016,0.069-0.052
		c0.075,0.013,0.157,0.069,0.183,0.151l-0.007,0.379c-0.291,0.414-0.93,0.438-1.45,0.343c-0.242-0.039-0.43-0.165-0.644-0.263
		c-0.283-0.289-0.45-0.775-0.381-1.213c0.018-0.039,0.031-0.057,0.046-0.111c-0.015-0.417,0.263-0.77,0.564-1.001
		c0.986-0.6,2.237-1.097,2.278-2.392c-0.011-0.039-0.046-0.09-0.062-0.111c-0.845-0.318-1.669,0.044-2.405,0.5
		c-0.777,0.548-1.364,1.457-1.596,2.261c-0.016,0.036-0.057,0.036-0.096,0.036l-0.59-1.156c0-0.013-0.015-0.013-0.063-0.031
		c-0.014,0-0.055,0.028-0.08,0.041c-0.217,1.123,0.35,2.361,0.994,3.229c0.859,0.675,1.714,1.226,2.842,1.128
		c0.592-0.093,1.045-0.435,1.262-0.968C107.493,30.793,107.408,30.296,107.166,30.008 M102.925,29.558l0.363,0.183
		c0.082-0.019,0.144-0.034,0.164-0.075c0.093-0.321,0.113-0.666,0.237-1.017c0.474-1.043,1.313-1.565,2.379-1.776l0.013,0.008
		c-0.329,0.533-0.782,0.762-1.318,1.094c-0.767,0.659-1.017,1.597-0.949,2.564C103.386,30.327,103.113,29.967,102.925,29.558"/>
	<path fill="#FFFFFF" d="M68.526,37.618c0.067,0.077,0.021,0.188-0.082,0.206c-0.028,0.041-0.077,0.025-0.134,0.041l-0.036-0.041
		C68.343,37.747,68.416,37.618,68.526,37.618 M69.252,37.497c-0.142,0.067-0.269,0.049-0.407,0.093
		c-0.028-0.016-0.074,0.011-0.09-0.044c-0.023-0.074,0.072-0.121,0.131-0.149C69.031,37.384,69.174,37.41,69.252,37.497
		 M80.184,34.23c-0.335-0.477-0.615-0.976-0.719-1.537c-0.038-0.036-0.06-0.08-0.072-0.14c-0.013-0.051-0.018-0.095-0.038-0.149
		c-0.031-0.113-0.072-0.192-0.206-0.231c-0.108,0.093-0.132,0.286-0.064,0.407c0,0.448,0.064,0.852,0.137,1.256
		c0.1,0.407,0.185,0.793,0.236,1.221c0.098,0.036,0.142,0.105,0.165,0.175c0.016,0.033,0.028,0.06,0.036,0.116
		c0.008,0.028,0.016,0.066,0.016,0.108c0.025,0.156,0.057,0.316,0.257,0.337c0.124-0.229,0.294-0.288,0.484-0.324
		c0.098-0.013,0.198,0,0.299-0.021c0.093-0.003,0.192-0.014,0.299-0.044c0.015,0,0.022,0.023,0.049,0.023
		c0.022,0.018,0.033,0.028,0.054,0.043c0.036,0.021,0.074,0.036,0.118-0.002c0.019-0.055,0.062-0.093,0.098-0.126
		c0.016,0,0.039-0.021,0.06-0.036c0.023-0.016,0.044-0.034,0.06-0.042c0.093-0.069,0.172-0.103,0.222-0.208
		c-0.072-0.433-0.348-0.507-0.659-0.533c-0.072-0.01-0.152-0.01-0.242-0.016c-0.077-0.002-0.152-0.018-0.222-0.03
		C80.397,34.437,80.266,34.369,80.184,34.23 M77.831,32.459l0.145-0.132l-0.014-0.306c-0.229-0.019-0.425,0.077-0.612,0.2
		c-0.088,0.067-0.183,0.137-0.275,0.204c-0.093,0.069-0.17,0.154-0.26,0.221l-0.021,0.016L77.831,32.459z M85.083,32.072
		c0.028,0.127-0.008,0.24-0.075,0.332l0.134,0.258c-0.309,0-0.53-0.59-0.949-0.363c-0.096-0.049-0.225-0.154-0.137-0.277
		c0.159-0.168,0.406-0.225,0.62-0.157C84.813,31.937,84.991,31.946,85.083,32.072 M73.161,31.298
		c0.082,0.046-0.016,0.103-0.023,0.146h-0.021l-0.003-0.146H73.161z M84.986,31.2c0.098,0.115,0.131,0.296,0.079,0.442
		c-0.131,0.173-0.321-0.016-0.463-0.041c-0.348-0.322-0.793,0.036-1.164-0.11c-0.025,0.005-0.046,0.059-0.088,0.049
		c-0.098-0.049-0.098-0.168-0.049-0.242c0.152-0.271,0.395-0.031,0.595-0.031C84.231,31.208,84.653,30.903,84.986,31.2
		 M79.08,30.659c0.033,0.054,0.057,0.08,0.064,0.113l0.013,0.003c0-0.17-0.067-0.41-0.225-0.495
		c-0.054,0.101-0.005,0.196,0.049,0.273C79.012,30.585,79.041,30.62,79.08,30.659 M78.16,30.994c-0.021,0.041,0.014,0.09-0.03,0.103
		c-0.154-0.062-0.319-0.224-0.379-0.376c-0.038-0.126-0.198-0.288-0.072-0.433C77.872,30.484,77.903,30.801,78.16,30.994
		 M84.53,30.162c0.381-0.118,0.801-0.118,1.228-0.118c0.152,0.008,0.075,0.195,0.052,0.272c-0.18,0.343-0.641,0.178-0.801,0.577
		c-0.186,0-0.195-0.229-0.355-0.273c-0.175-0.018-0.36-0.059-0.463-0.188c0-0.137-0.011-0.314,0.113-0.412
		C84.412,29.987,84.453,30.157,84.53,30.162 M73.466,31.221l0.057,0.304v-0.028c0.096-0.271,0.193-0.543,0.281-0.819
		c0.093-0.28,0.164-0.553,0.195-0.87c-0.543,0.423-1.112,0.969-1.391,1.565l0.34-0.324l0.077,0.067c0,0.17-0.077,0.298-0.224,0.409
		c-0.062,0.049-0.06,0.113-0.023,0.157c0.016,0.036,0.028,0.062,0.047,0.098c0.025,0.018,0.046,0.036,0.077,0.059l0.129-0.268
		c0.021-0.005,0.03,0,0.046,0.011c-0.002,0.002,0.005,0.002,0.013,0.01c0.003,0.011,0.011,0.016,0.023,0.031
		c-0.088,0.312-0.154,0.644-0.227,0.976l-0.005,0.041l0.211-0.275c-0.088-0.09-0.031-0.231,0.082-0.26
		c0-0.082,0.008-0.173,0.016-0.255c0.011-0.088,0.016-0.17,0.041-0.247C73.258,31.444,73.331,31.315,73.466,31.221 M77.452,29.586
		c0.044-0.184,0.24-0.242,0.399-0.302c-0.01-0.031-0.031-0.033-0.052-0.033h-0.03c-0.013-0.003-0.019-0.003-0.031-0.003
		c-0.17,0.028-0.265,0.149-0.309,0.283c-0.036,0.075-0.052,0.14-0.06,0.227c-0.018,0.064-0.031,0.14-0.044,0.209
		c0.047,0.455,0.193,0.914,0.603,1.197c0.401,0.221,0.95,0.463,1.427,0.208c0.021-0.121-0.021-0.234-0.083-0.329
		c-0.216,0-0.394-0.098-0.561-0.209c-0.077-0.059-0.162-0.131-0.24-0.175c-0.074-0.064-0.156-0.121-0.239-0.149
		c-0.01-0.088,0.031-0.129,0.098-0.149c0.021-0.023,0.052-0.044,0.091-0.046c0.028-0.019,0.059-0.026,0.079-0.067
		c-0.028-0.044-0.046-0.09-0.069-0.149c-0.028-0.054-0.049-0.095-0.09-0.131c-0.113,0-0.175-0.069-0.227-0.149
		c-0.021-0.036-0.044-0.077-0.074-0.118c-0.019-0.034-0.05-0.08-0.08-0.093c-0.077-0.036-0.209-0.062-0.281,0.036
		C77.62,29.665,77.496,29.679,77.452,29.586 M73.842,29.608c0.186-0.164,0.327-0.348,0.231-0.631
		c-0.347,0.108-0.651,0.366-0.935,0.657c-0.272,0.293-0.52,0.628-0.736,0.903l-0.025,0.039l0.149-0.083
		c0.041-0.178,0.17-0.249,0.312-0.291c0.074-0.025,0.146-0.038,0.214-0.041c0.082-0.021,0.165-0.038,0.222-0.072
		c0.071-0.095,0.18-0.162,0.26-0.247C73.655,29.771,73.752,29.686,73.842,29.608 M74.87,28.803c0.041-0.353,0.134-0.703,0.355-0.991
		c-0.08-0.105-0.145-0.101-0.203-0.057c-0.034,0.019-0.064,0.057-0.101,0.085c-0.021,0.016-0.062,0.033-0.104,0.052
		c-0.013,0.059-0.051,0.129-0.087,0.19c-0.036,0.067-0.072,0.137-0.101,0.206c-0.06,0.137-0.09,0.275,0,0.442
		c-0.229,0.399-0.348,1.02-0.08,1.473c0.149-0.015,0.281-0.066,0.407-0.175c0.03-0.069,0.059-0.145,0.085-0.214
		c0.036-0.074,0.036-0.149,0.008-0.224c-0.108,0.016-0.14,0.08-0.165,0.157c0,0.022-0.011,0.051-0.016,0.066
		c0,0.028-0.016,0.036-0.03,0.055c-0.008,0.021-0.031,0.059-0.083,0.062l-0.041-0.041C74.797,29.547,74.808,29.169,74.87,28.803
		 M73.454,27.662c0.047-0.052,0.098-0.036,0.132,0c0.018,0.008,0.054,0.044,0.059,0.064c0.016,0.021,0.021,0.047,0.041,0.064
		l0.042-0.028c0.025,0,0.043-0.008,0.062-0.018c0.016,0,0.041-0.034,0.064-0.044c0.038-0.031,0.072-0.039,0.11,0.038
		c0.021-0.028,0.021-0.033,0.047-0.028c0.005-0.022,0.021,0,0.035,0c0.199-0.136,0.387-0.362,0.384-0.559
		c-0.417,0.08-0.79,0.237-1.112,0.559c0.028,0.013,0.052,0,0.08-0.01c0.011-0.019,0.016-0.026,0.033-0.019
		C73.444,27.667,73.441,27.662,73.454,27.662 M71.793,26.931c0.1,0.106-0.047,0.178-0.137,0.222
		c-0.047-0.021-0.101,0.011-0.139-0.044C71.551,26.993,71.667,26.91,71.793,26.931 M74.797,26.378
		c0.021-0.064,0.062-0.121,0.113-0.168l-0.051-0.054c-0.387,0.031-0.758,0.154-1.107,0.307c-0.34,0.144-0.67,0.324-0.958,0.491
		c0.108,0,0.19-0.057,0.283-0.098c0.088-0.054,0.17-0.105,0.253-0.157c0.123-0.013,0.247-0.085,0.36-0.108
		c0.123-0.03,0.231-0.03,0.324,0.096c0.077-0.036,0.064-0.08,0.054-0.116c-0.008-0.022-0.025-0.046-0.041-0.062
		c0-0.016-0.013-0.031-0.013-0.046c0.137-0.099,0.165-0.034,0.18,0.041c0.006,0.025,0.016,0.049,0.026,0.074
		c0.013,0.019,0.013,0.052,0.021,0.08c0.025,0.033,0.062,0.062,0.123,0.08c0.186,0.054,0.278-0.039,0.346-0.168
		C74.739,26.512,74.756,26.447,74.797,26.378 M74.959,25.84c0.044-0.031,0.075-0.069,0.036-0.149c-0.054-0.16-0.213-0.055-0.275,0
		c-0.066,0.087-0.038,0.247,0.104,0.221c0.025-0.013,0.046-0.022,0.077-0.038l0.025-0.021C74.942,25.845,74.947,25.845,74.959,25.84
		 M73.248,25.657c0.077,0.038,0.098,0.033,0.175-0.016C73.345,25.59,73.32,25.593,73.248,25.657 M75.318,25.371
		c0.036,0.036,0.082,0.046,0.108-0.033c-0.026-0.05-0.062-0.057-0.108-0.06c-0.011,0-0.041,0.01-0.057,0
		c-0.021,0-0.036,0.01-0.049,0v0.013c0.008,0,0.023,0.016,0.038,0.031C75.277,25.351,75.297,25.358,75.318,25.371 M74.921,25.358
		c0.041,0,0.101-0.021,0.157-0.044c-0.044-0.067-0.119-0.067-0.178-0.057c-0.021,0.013-0.052,0.023-0.088,0.033
		c-0.008,0.011-0.041,0.023-0.057,0.031c0,0,0,0.01,0.011,0.01C74.813,25.358,74.87,25.374,74.921,25.358 M74.582,24.684
		l0.088-0.188c-0.08-0.095-0.165-0.095-0.248-0.062c-0.033,0.008-0.082,0.019-0.118,0.052c-0.046,0.016-0.077,0.016-0.134,0.018
		c0.036,0.047,0.064,0.052,0.104,0.052c0.015,0,0.038,0.005,0.062-0.005l0.057-0.016c0.082-0.005,0.144-0.005,0.193,0.137
		L74.582,24.684z M76.309,24.434c0.06-0.064,0.105-0.101,0.137-0.151c-0.479-0.443-1.04-0.7-1.663-0.804l0.746,0.379l0.047-0.055
		c0.139,0.049,0.272,0.154,0.35,0.294c-0.036,0.046-0.088,0.036-0.139,0c-0.016-0.016-0.041-0.039-0.072-0.057
		c-0.028-0.019-0.054-0.026-0.085-0.019c-0.054,0.019-0.104,0.023-0.146,0.019c-0.016,0-0.047-0.008-0.072-0.008
		c-0.016-0.011-0.041-0.011-0.062-0.025c-0.099-0.042-0.191-0.05-0.289,0.051l0.149,0.154l0.145-0.136
		c0.072,0.129,0.186,0.214,0.307,0.28c0.054,0.039,0.11,0.077,0.188,0.096c0.062,0.043,0.103,0.066,0.159,0.11
		c0.031,0.041,0.031,0.129-0.025,0.142c-0.183-0.033-0.353-0.108-0.525-0.167c-0.17-0.052-0.36-0.093-0.571-0.042l0.036,0.155
		c0.054,0.022,0.066,0.043,0.074,0.079c0,0.011,0,0.028-0.01,0.039c0,0.008,0,0.023-0.011,0.046
		c-0.028,0.049-0.054,0.129,0.064,0.184c0.088-0.06,0.09-0.147,0.088-0.229c-0.013-0.016-0.013-0.039-0.005-0.06v-0.054
		c0.005-0.036,0.022-0.064,0.062-0.093c0.016,0.016,0.041,0.016,0.066,0.028c0.026,0,0.052,0.013,0.077,0.013
		c0.05,0.021,0.088,0.055,0.106,0.116l-0.132,0.101c-0.01,0.043,0,0.079,0.016,0.118c0.018,0.025,0.021,0.044,0.052,0.077
		c0.013-0.008,0.025-0.033,0.03-0.052c0.016-0.021,0.021-0.041,0.034-0.049c0.022-0.052,0.049-0.074,0.107-0.095
		C75.505,24.805,75.5,24.8,75.5,24.776l0.039-0.036c0.008-0.021,0.025-0.025,0.046-0.041c0.021-0.008,0.049-0.008,0.075,0.021
		c0.136,0.038,0.136,0.103,0.1,0.157c-0.005,0.038-0.041,0.071-0.062,0.115c-0.021,0.031-0.041,0.077-0.033,0.111
		c0.069,0.005,0.115,0.057,0.149,0.11l0.033,0.041c0.003,0.016,0.018,0.033,0.031,0.047c0.025,0.018,0.046,0.036,0.09,0.049
		c0.036-0.08,0.088-0.152,0.129-0.242c0.03-0.072,0.054-0.149,0.022-0.245c-0.033-0.11,0.008-0.213,0.078-0.304
		C76.227,24.514,76.27,24.452,76.309,24.434 M76.981,22.974c0,0.062,0.016,0.134-0.057,0.168c-0.116,0.051-0.098-0.101-0.154-0.142
		c0-0.062-0.016-0.132,0.057-0.165C76.885,22.866,76.924,22.928,76.981,22.974 M80.845,22.58c-0.064,0.057-0.142,0.046-0.208,0.021
		c-0.031,0-0.083-0.018-0.113-0.036c-0.042-0.01-0.085-0.018-0.127-0.01c-0.071,0.051-0.139,0.063-0.229,0.071
		c-0.036,0.016-0.077,0.016-0.116-0.01c-0.044,0.002-0.085,0.01-0.115,0.01c-0.168-0.018-0.333-0.043-0.451,0.083
		c-0.165,0.072-0.337,0.069-0.505-0.005c-0.005,0.09-0.059,0.12-0.131,0.136c-0.031,0.013-0.072,0.013-0.113,0.026
		c-0.036,0-0.074,0-0.093,0.015c-0.123-0.069-0.165-0.198-0.206-0.326c-0.025-0.064-0.046-0.132-0.069-0.198
		c-0.028-0.052-0.064-0.119-0.121-0.188l-0.005,0.209c-0.003,0.079-0.069,0.126-0.116,0.162c-0.064,0.025-0.146,0.052-0.203,0.087
		c0.028,0.072,0.098,0.137,0.17,0.173c0.046,0.129,0.036,0.309-0.108,0.384c-0.229-0.33-0.412-0.692-0.563-1.048l-0.069,0.005
		c0.043,0.105,0.082,0.222,0.134,0.319c0.038,0.116,0.066,0.229,0.057,0.355c0,0.021,0,0.052-0.006,0.082
		c-0.01,0.039-0.018,0.06-0.035,0.077c-0.028,0.052-0.072,0.091-0.135,0.047l-0.015-0.003l0.005,0.016
		c0.005,0.003,0.013,0.031,0.021,0.052c0.016,0.002,0.018,0.022,0.025,0.038c0.011,0.039,0.011,0.069-0.041,0.091
		c-0.149-0.121-0.271-0.261-0.398-0.433c-0.06-0.077-0.116-0.165-0.184-0.247c-0.062-0.078-0.128-0.157-0.206-0.237
		c-0.092-0.096-0.198-0.206-0.309-0.302c-0.095-0.09-0.208-0.167-0.34-0.203c-0.046,0.157,0.021,0.188,0.108,0.203
		c0.023,0.006,0.052,0.016,0.08,0.021c0.007,0,0.038,0,0.054,0.018c0.046,0.013,0.08,0.031,0.098,0.082
		c0,0.142,0.082,0.198,0.17,0.261c0.031,0.008,0.049,0.018,0.067,0.028c0.025,0.022,0.043,0.038,0.062,0.043
		c0.038,0.042,0.057,0.091,0.052,0.143c-0.206,0.188-0.132,0.365,0.005,0.53c0.08,0.079,0.165,0.151,0.252,0.239
		c0.064,0.085,0.134,0.159,0.17,0.244c0.057-0.041,0.149-0.079,0.201-0.033l-0.186,0.209c-0.186,0.046-0.265-0.047-0.35-0.176
		c-0.034-0.069-0.072-0.149-0.106-0.219c-0.033-0.059-0.085-0.126-0.156-0.172c-0.16-0.116-0.317-0.258-0.469-0.379
		c-0.162-0.121-0.335-0.227-0.521-0.255c0.129,0.08,0.258,0.134,0.381,0.219c0.121,0.082,0.24,0.173,0.294,0.322
		c-0.018,0.071-0.093,0.071-0.165,0.062c-0.041-0.008-0.057-0.025-0.087-0.021c-0.006-0.005-0.023-0.005-0.031-0.005
		c-0.011,0-0.011,0.005-0.011,0.015c0.08,0.101,0.184,0.188,0.283,0.266c0.106,0.066,0.225,0.142,0.325,0.229l0.128-0.052
		c0.119,0.118,0.273,0.34,0.258,0.406c0.149,0.016,0.247-0.057,0.34-0.146l0.072-0.072c0.031-0.018,0.052-0.051,0.082-0.062
		c0.044-0.044,0.104-0.064,0.176-0.082c0.066,0.049,0.082,0.121,0.082,0.198c0.016,0.046,0.021,0.093,0.036,0.118
		c0,0.046,0.01,0.08,0.046,0.116c0.028-0.034,0.057-0.06,0.085-0.085c0.023-0.014,0.049-0.05,0.08-0.067
		c0.062-0.039,0.118-0.088,0.162-0.159c0.054-0.062,0.028-0.124,0-0.176c-0.013-0.025-0.031-0.051-0.044-0.085
		c-0.005-0.021-0.016-0.049-0.016-0.093c0.016-0.008,0.019-0.008,0.042-0.013c0.005-0.008,0.005-0.036,0.022-0.052
		c0.023-0.007,0.036-0.025,0.057-0.025c0.111,0.178,0.242,0.142,0.358,0.082c0.033,0,0.066-0.013,0.09-0.03
		c0.025-0.011,0.06-0.011,0.088-0.011c0.064-0.002,0.121,0.019,0.188,0.093c0.083,0.013,0.134-0.025,0.181-0.095
		c0.107,0,0.159-0.039,0.211-0.096c0.013-0.033,0.036-0.054,0.069-0.098c0.008-0.025,0.025-0.062,0.049-0.104
		c0.033,0.008,0.077,0.008,0.108,0.006c0.036,0.002,0.069,0.022,0.093,0.021c0.066,0.016,0.121,0.016,0.2-0.026
		c0.011,0.006,0.021,0.026,0.031,0.026c0,0,0.005,0.016,0.016,0.018c0.025,0.023,0.031,0.044,0.033,0.077
		c0.064,0.026,0.116-0.008,0.152-0.054c0.016-0.025,0.03-0.054,0.051-0.08c0.011-0.025,0.031-0.046,0.06-0.074l-0.06-0.055
		c-0.005-0.021,0.006-0.041,0.021-0.054c0.015-0.016,0.015-0.018,0.033-0.031c0.005,0,0.008-0.013,0.018-0.018
		c0.096-0.011,0.222-0.036,0.346-0.036c0.113,0,0.229,0.019,0.306,0.118c0.291-0.077,0.7-0.118,0.93,0.132
		c0.039-0.067,0.098-0.057,0.157-0.034c0.023,0.006,0.057,0.021,0.085,0.021c0.021,0.013,0.052,0.021,0.069,0.013
		c0.28-0.028,0.582,0.126,0.775,0.368c0.103,0.002,0.164-0.055,0.236-0.137c0.14-0.134,0-0.309-0.144-0.384
		c-0.135-0.013-0.258-0.044-0.384-0.072c-0.119-0.036-0.245-0.074-0.368-0.11c-0.25-0.072-0.494-0.113-0.793-0.072
		C81.141,22.526,81.007,22.523,80.845,22.58 M77.156,21.859c0.026,0.064,0.069,0.121,0.154,0.142
		c-0.018-0.077-0.057-0.142-0.09-0.196c-0.049-0.057-0.09-0.105-0.129-0.162C77.11,21.71,77.13,21.784,77.156,21.859 M77.017,21.584
		l0.021-0.047c-0.046-0.036-0.096-0.077-0.121-0.139c-0.044,0.033-0.021,0.08,0.016,0.118c0.005,0.011,0.031,0.031,0.049,0.033
		l0.016,0.016L77.017,21.584z M82.579,19.764c0.826,0.101,1.516,0.543,2.244,0.859c0.312,0.281,0.722,0.296,1.018,0.608
		c0.25,0.082,0.42,0.306,0.615,0.479c0.077,0.165-0.093,0.208-0.19,0.265c-0.994,0.07-2.034,0.366-2.536,1.331
		c0.105,0.198,0.494,0.253,0.278,0.546c0.021,0.582-0.631,0.348-0.842,0.763c-1.648-0.695-3.96-0.714-5.448,0.334
		c-0.562,0.525-1.287,1.041-1.54,1.738c0.283,0.052,0.557,0.543,0.896,0.28c0.082,0.006,0.203,0.06,0.113,0.165
		c-0.206,0.101-0.054,0.227-0.016,0.371c0.104,0.159,0.245,0.072,0.371,0.033c0.041-0.031,0.077-0.085,0.123-0.066
		c-0.025,0.172-0.216,0.304-0.26,0.471c0.137,0.036,0.203-0.214,0.348-0.195c0.095,0.118,0.046,0.35,0.25,0.375
		c0.095-0.041,0.162-0.277,0.296-0.17c0.118,0.07,0.149,0.22,0.057,0.299c-0.175,0.173-0.363,0.278-0.536,0.412
		c0.382,0.343,0.824-0.103,1.189-0.247l2.704-1.125c1.112-0.438,2.409-0.724,3.444-0.777c1.272-0.057,1.8,0.319,1.8,0.842
		c0.008,0.896-1.172,1.759-1.476,1.856c-0.35-0.348-0.411-0.855-0.839-1.195c-0.118-0.041-0.201,0.044-0.25,0.135
		c-0.062,0.224,0.069,0.54-0.214,0.653c-0.2,0.064-0.427,0.335-0.638,0.108c-0.84-0.651-2.091-0.263-2.936,0.095
		c-0.149,0.116-0.407,0.242-0.422,0.433c0.227,0.253,0.751,0.132,0.751,0.564c0.16,0.142,0.39,0.26,0.461,0.44
		c-0.183,0.095,0.157,0.239-0.079,0.313c-0.343,0.142-0.077-0.35-0.407-0.263c-0.077-0.046-0.154-0.131-0.214,0l-0.025,0.19h-0.139
		c-0.234-0.348-0.5-0.677-0.626-1.086c-0.072-0.036-0.057-0.119-0.137-0.119l-0.059,0.036c0.321,0.827,0.834,1.565,1.127,2.377
		c-0.036,0.041-0.066,0.082-0.107,0.066c-0.157-0.18-0.33-0.401-0.489-0.538c-0.034,0.105-0.17,0.17-0.134,0.322
		c0.134,0.236,0.332,0.456,0.483,0.667c-0.016,0.131,0.098,0.304,0.253,0.198c0.041-0.064,0.164-0.064,0.233-0.028
		c0.42,0.038,0.544,0.973,0.992,0.491c0.262-0.216,0.571,0.039,0.836,0.104c0.722,0.257,1.635-0.36,2.16,0.307
		c-0.105,0.597-0.762,0.515-1.158,0.743c-0.365,0.193-0.804,0.348-0.999,0.734c0.195,0.455-0.018,0.955-0.018,1.441
		c-0.25-0.072-0.096-0.399-0.25-0.546c-0.154,0.165-0.453,0.116-0.521,0.373c-0.051,0.225-0.072,0.475-0.28,0.598
		c-0.522,0.098-0.505,0.752-0.979,0.938c-0.165,0.082-0.304,0.26-0.51,0.151c-0.299-0.118-0.299-0.458-0.436-0.697
		c-0.12,0.087-0.025,0.255-0.098,0.36c-0.087,0.224-0.139,0.425-0.072,0.692c-0.231,0.14-0.524-0.033-0.777-0.041
		c-0.268-0.126-0.52-0.25-0.795-0.365c-0.291,0-0.554,0.571-0.807,0.095c-0.726,0.069-1.473,0.554-2.198,0.14
		c-0.412-0.217-0.719,0.159-1.051,0.285c-0.123,0.322-0.469,0.371-0.798,0.381c-0.013-0.041-0.062-0.066-0.046-0.11
		c1.02-0.644,1.992-1.35,3.073-1.83c0.577-0.722,0.686-1.656,0.788-2.572c-0.283-0.425-1.081-0.445-1.065-1.076
		c0.275-0.654,0.765-1.521,0.107-2.14c-0.154-0.505-0.561-0.219-0.896-0.242c-0.201,0.041-0.322-0.103-0.458-0.054l-0.176,0.296
		c-0.438,2.312-0.834,4.64-2.494,6.454c-0.595,0.595-1.347,0.813-2.052,1.182c-0.124,0.05-0.263,0.099-0.402,0.149
		c-0.587,0.105-1.292,0.44-1.789-0.066c-0.131-0.093-0.337-0.165-0.351-0.345c0.225-0.152,0.475-0.229,0.724-0.312
		c0.335-0.129,0.639-0.412,1.007-0.379l0.085-0.082c-0.031-0.019-0.074-0.047-0.062-0.091c0.057-0.126,0.129,0.028,0.193,0.034
		c0.641-0.382,1.369-0.518,1.912-1.141c0.757-0.5,1.148-1.315,1.452-2.094l0.196-0.844c-0.119-0.247-0.083-0.562-0.255-0.786
		c-0.049,0.297-0.176,0.562-0.368,0.819c0.036-0.186,0.131-0.373,0.131-0.543c-0.033,0.162-0.26,0.255-0.219,0.435
		c-0.159,0.149-0.479,0.222-0.428,0.513l0.031,0.03c0.103-0.01,0.124-0.175,0.216-0.144c0.062,0.144,0.271,0.144,0.181,0.36
		c-0.131-0.013-0.247,0.108-0.314,0.216c0,0.126,0.155,0.137,0.184,0.242c-0.019,0.368-0.142,0.698-0.255,1.03
		c-0.229,0.126-0.464,0.2-0.69,0.326c-0.216,0.052-0.181-0.406-0.433-0.162c-0.229,0.091,0.124,0.245-0.108,0.291
		c-0.121-0.077-0.231,0.041-0.35,0.098l-0.093,0.106c0.08,0.041,0.229-0.108,0.263,0.079c-0.011,0.214-0.247,0.214-0.355,0.354
		c-0.582-0.24-0.955,0.414-1.49,0.502c0.057-0.191,0.27-0.237,0.306-0.415c0.062-0.144,0.31-0.167,0.232-0.327
		c-0.067-0.059-0.127-0.095-0.129-0.192c0.461-0.448,1.05-0.865,1.457-1.419c0.258-0.324,0.566-0.672,0.51-1.107
		c0.18-0.219,0.258-0.718,0.641-0.607c0.193-0.118,0.06-0.404,0.332-0.45c0-0.409,0.376-0.654,0.343-1.087
		c0.023-0.021,0.069-0.038,0.06-0.08l-0.026-0.025c-0.831,1.089-1.519,2.333-2.615,3.34l-0.134,0.018
		c0.021-0.286,0.134-0.538,0.271-0.809c0.063,0.181,0.151,0.005,0.233-0.028c0.464-0.348,0.546-0.831,0.865-1.246
		c-0.002-0.139-0.118-0.28-0.03-0.433c0.319-0.414,0.694-0.829,0.942-1.246l-0.021-0.03c-0.488,0.62-1.097,1.127-1.729,1.632
		c-0.08,0.077-0.227-0.005-0.211-0.098c0.036-0.263,0.01-0.538,0.131-0.765c0.039,0.103,0.039,0.214,0.104,0.291
		c0.175-0.353,0.36-0.683,0.723-0.925c0.093-0.244,0.253-0.458,0.387-0.682c-0.101-0.188,0.044-0.374,0.216-0.487
		c0.178-0.103,0.291-0.34,0.459-0.499c0.139-0.266,0.46-0.384,0.694-0.587c0.129,0.077,0.325-0.039,0.469-0.137
		c0.178-0.384,0.639-0.445,0.942-0.739L74.092,28.1c-0.569,0.325-1.166,0.649-1.748,0.948c-0.028-0.181-0.039-0.448,0.085-0.582
		c-0.129-0.121-0.227,0.121-0.366,0.134c-0.098,0.2-0.411,0.319-0.288,0.59c-0.095,0.118-0.216,0.192-0.378,0.118
		c-0.297,0.371-0.59,0.641-0.95,1.007l-0.08,0.002c0.173-0.313,0.237-0.68,0.538-0.955c0.013-0.43,0.747-0.442,0.541-0.916
		c0.062-0.101,0.234-0.178,0.19-0.266l-0.077-0.08c-0.145,0.034-0.162,0.302-0.307,0.24c-0.096-0.072-0.008-0.155-0.003-0.24
		c0.14-0.126,0.374-0.093,0.407-0.309l-0.036-0.064l-0.958,0.752V28.28c0.319-0.335,0.752-0.692,0.994-1.048
		c0.066-0.023,0.126,0.033,0.19,0.013c0.201-0.108,0.088-0.252,0.031-0.409c-0.072-0.085-0.16-0.183-0.14-0.324
		c0.232-0.113,0.428-0.338,0.68-0.425c-0.123,0.018-0.309,0.046-0.442,0.134c-0.083,0.046-0.14,0.144-0.271,0.105
		c-0.198,0.121-0.409,0.288-0.641,0.327c-0.019-0.286,0.085-0.549,0.316-0.721l-0.028-0.034c0.123,0.008,0.227-0.01,0.327-0.082
		c-0.036-0.343,0.546-0.322,0.332-0.685c0.057-0.217,0.345-0.304,0.504-0.402c-0.098-0.046-0.326-0.046-0.468,0.008
		c-0.064,0.055-0.14,0.077-0.24,0.067c-0.002-0.283,0.358-0.492,0.297-0.829c0.113-0.479,0.633-0.461,0.947-0.628
		c-0.157-0.134-0.288,0.139-0.433-0.042c0.145-0.425,0.51-0.815,0.837-1.138c0.198,0.028,0.146-0.188,0.208-0.291
		c0.433-0.272,0.793-1.035,1.339-0.705l0.016-0.039c-0.057-0.069-0.186-0.118-0.149-0.229c0.245-0.273,0.587-0.322,0.886-0.518
		c0.101-0.023,0.19,0.005,0.211,0.103c0.091,0.242-0.28,0.453,0.093,0.59l0.021,0.041c0.116-0.131,0.219-0.214,0.392-0.216
		c0.074,0.154,0.175,0.277,0.319,0.398l0.082-0.046c-0.327-0.304-0.499-0.656-0.795-0.947c0.028-0.198,0.28-0.206,0.406-0.314
		c0.16,0.041,0.351-0.222,0.469,0.039c0.018-0.354,0.42-0.354,0.667-0.448c0.19,0.178,0.263-0.101,0.433-0.137
		c0.334,0.008,0.721-0.263,1.007,0.036l0.213-0.175C80.431,19.311,81.582,19.331,82.579,19.764"/>
	<path fill="#FFFFFF" d="M7.693,17.585c-2.363,0.006-4.271,1.926-4.261,4.292l0.06,15.842c0.005,2.361,1.936,4.269,4.289,4.256
		l15.604-0.057c2.361-0.008,4.276-1.938,4.267-4.281l-0.062-15.854c0-1.151-0.45-2.215-1.271-3.018
		c-0.796-0.809-1.874-1.249-3.018-1.233L7.693,17.585z M4.711,37.719L4.658,21.877c-0.008-1.701,1.356-3.066,3.035-3.081
		l15.612-0.05c0.814,0,1.581,0.317,2.158,0.878c0.576,0.569,0.898,1.347,0.898,2.168l0.064,15.847c0,1.674-1.359,3.044-3.041,3.062
		L7.776,40.752C6.097,40.757,4.725,39.397,4.711,37.719"/>
	<path fill="#FFFFFF" d="M4.985,50.113l-0.486,1.478H3.87l1.604-4.693h0.721l1.602,4.693H7.147l-0.496-1.478H4.985z M6.53,49.645
		l-0.467-1.352c-0.098-0.314-0.172-0.59-0.239-0.86H5.808c-0.069,0.271-0.144,0.569-0.241,0.845l-0.459,1.367H6.53z"/>
	<path fill="#FFFFFF" d="M10.16,46.972c0.263-0.066,0.688-0.105,1.109-0.105c0.601,0,0.991,0.105,1.274,0.335
		c0.247,0.188,0.396,0.469,0.396,0.837c0,0.455-0.309,0.852-0.787,1.024v0.016c0.438,0.113,0.968,0.481,0.968,1.171
		c0,0.404-0.165,0.719-0.407,0.945c-0.321,0.296-0.85,0.445-1.616,0.445c-0.412,0-0.739-0.033-0.938-0.064V46.972z M10.762,48.89
		h0.546c0.641,0,1.015-0.34,1.015-0.79c0-0.551-0.404-0.772-1.022-0.772c-0.275,0-0.44,0.028-0.538,0.044V48.89z M10.762,51.133
		c0.123,0.015,0.291,0.028,0.507,0.028c0.629,0,1.21-0.237,1.21-0.912c0-0.631-0.553-0.908-1.21-0.908h-0.507V51.133z"/>
	<path fill="#FFFFFF" d="M14.006,49.273c0-0.401-0.006-0.739-0.026-1.05h0.536l0.03,0.666h0.016c0.149-0.458,0.53-0.736,0.942-0.736
		c0.06,0,0.113,0.003,0.165,0.006v0.584c-0.057-0.01-0.118-0.01-0.206-0.01c-0.433,0-0.736,0.316-0.824,0.777
		c-0.01,0.079-0.021,0.188-0.021,0.285v1.795h-0.612V49.273z"/>
	<path fill="#FFFFFF" d="M18.712,50.787c0,0.286,0.019,0.574,0.052,0.804h-0.551l-0.047-0.425h-0.021
		c-0.19,0.265-0.551,0.499-1.029,0.499c-0.69,0-1.033-0.476-1.033-0.963c0-0.815,0.724-1.264,2.026-1.254v-0.071
		c0-0.269-0.074-0.778-0.767-0.775c-0.319,0-0.645,0.09-0.886,0.25l-0.145-0.407c0.283-0.172,0.697-0.291,1.122-0.291
		c1.03,0,1.277,0.698,1.277,1.367V50.787z M18.121,49.876c-0.664-0.018-1.422,0.101-1.422,0.752c0,0.406,0.263,0.587,0.569,0.587
		c0.445,0,0.729-0.278,0.826-0.563c0.019-0.07,0.026-0.145,0.026-0.196V49.876z"/>
	<path fill="#FFFFFF" d="M19.799,49.137c0-0.357-0.008-0.638-0.026-0.913h0.546l0.033,0.556h0.008
		c0.17-0.316,0.562-0.626,1.118-0.626c0.468,0,1.194,0.278,1.194,1.427v2.011h-0.615v-1.944c0-0.538-0.198-0.991-0.78-0.991
		c-0.399,0-0.711,0.283-0.818,0.626c-0.034,0.069-0.047,0.175-0.047,0.283v2.026h-0.612V49.137z"/>
	<path fill="#FFFFFF" d="M26.164,51.479c-0.157,0.067-0.51,0.186-0.968,0.186c-1.01,0-1.677-0.689-1.677-1.715
		c0-1.037,0.708-1.797,1.811-1.797c0.365,0,0.685,0.088,0.847,0.181l-0.139,0.469c-0.142-0.083-0.368-0.17-0.708-0.17
		c-0.772,0-1.192,0.581-1.192,1.279c0,0.78,0.502,1.257,1.172,1.257c0.347,0,0.576-0.083,0.746-0.155L26.164,51.479z"/>
	<path fill="#FFFFFF" d="M26.982,46.645h0.607v2.111h0.016c0.098-0.175,0.247-0.335,0.44-0.435c0.183-0.104,0.394-0.168,0.626-0.168
		c0.447,0,1.179,0.278,1.179,1.427v2.011h-0.618v-1.937c0-0.543-0.206-0.996-0.777-0.996c-0.396,0-0.705,0.28-0.818,0.603
		c-0.036,0.09-0.047,0.188-0.047,0.299v2.031h-0.607V46.645z"/>
	<path fill="#FFFFFF" d="M35.566,49.884c0,1.241-0.873,1.781-1.679,1.781c-0.903,0-1.617-0.664-1.617-1.735
		c0-1.114,0.752-1.776,1.674-1.776C34.91,48.153,35.566,48.852,35.566,49.884 M32.893,49.912c0,0.739,0.423,1.298,1.02,1.298
		c0.582,0,1.025-0.557,1.025-1.311c0-0.566-0.286-1.295-1.01-1.295C33.21,48.604,32.893,49.281,32.893,49.912"/>
	<path fill="#FFFFFF" d="M36.498,51.591v-2.909h-0.469v-0.458h0.469v-0.16c0-0.474,0.113-0.911,0.387-1.182
		c0.236-0.224,0.543-0.309,0.823-0.309c0.222,0,0.402,0.049,0.523,0.1l-0.085,0.472c-0.093-0.044-0.206-0.08-0.39-0.08
		c-0.522,0-0.651,0.453-0.651,0.974v0.186h0.816v0.458h-0.816v2.909H36.498z"/>
	<path fill="#FFFFFF" d="M40.761,46.897v2.788c0,1.043,0.469,1.483,1.095,1.483c0.692,0,1.146-0.453,1.146-1.483v-2.788h0.612v2.747
		c0,1.438-0.759,2.021-1.776,2.021c-0.96,0-1.684-0.54-1.684-2.005v-2.763H40.761z"/>
	<path fill="#FFFFFF" d="M44.745,49.137c0-0.357-0.011-0.638-0.028-0.913h0.543l0.033,0.556h0.011
		c0.17-0.316,0.562-0.626,1.117-0.626c0.469,0,1.189,0.278,1.189,1.427v2.011h-0.612v-1.944c0-0.538-0.206-0.991-0.783-0.991
		c-0.396,0-0.711,0.283-0.818,0.626c-0.031,0.069-0.041,0.175-0.041,0.283v2.026h-0.61V49.137z"/>
	<path fill="#FFFFFF" d="M51.606,46.645v4.078c0,0.294,0.01,0.639,0.03,0.868h-0.543l-0.028-0.582H51.04
		c-0.181,0.376-0.582,0.656-1.133,0.656c-0.813,0-1.452-0.689-1.452-1.712c0-1.117,0.7-1.8,1.517-1.8
		c0.52,0,0.867,0.242,1.012,0.505h0.015v-2.014H51.606z M50.998,49.59c0-0.071-0.005-0.177-0.025-0.257
		c-0.09-0.379-0.428-0.7-0.881-0.7c-0.638,0-1.014,0.559-1.014,1.295c0,0.682,0.34,1.241,0.991,1.241
		c0.414,0,0.79-0.276,0.903-0.727c0.021-0.085,0.025-0.165,0.025-0.266V49.59z"/>
	<path fill="#FFFFFF" d="M53.068,50.015c0.013,0.832,0.536,1.175,1.153,1.175c0.443,0,0.711-0.08,0.938-0.176l0.113,0.436
		c-0.222,0.098-0.598,0.216-1.136,0.216c-1.032,0-1.65-0.689-1.65-1.701c0-1.018,0.595-1.811,1.581-1.811
		c1.102,0,1.391,0.958,1.391,1.578c0,0.127-0.011,0.219-0.021,0.283H53.068z M54.865,49.58c0.006-0.384-0.159-0.986-0.85-0.986
		c-0.628,0-0.891,0.566-0.937,0.986H54.865z"/>
	<path fill="#FFFFFF" d="M56.309,49.273c0-0.401-0.002-0.739-0.022-1.05h0.535l0.025,0.666h0.026
		c0.149-0.458,0.525-0.736,0.937-0.736c0.064,0,0.113,0.003,0.16,0.006v0.584c-0.057-0.01-0.121-0.01-0.201-0.01
		c-0.438,0-0.741,0.316-0.823,0.777c-0.014,0.079-0.021,0.188-0.021,0.285v1.795h-0.615V49.273z"/>
	<path fill="#FFFFFF" d="M61.513,51.097c0,0.777-0.16,1.246-0.475,1.542c-0.337,0.304-0.813,0.406-1.238,0.406
		c-0.404,0-0.85-0.098-1.122-0.283l0.157-0.468c0.221,0.146,0.566,0.275,0.983,0.275c0.628,0,1.089-0.327,1.089-1.185v-0.371h-0.013
		c-0.181,0.312-0.551,0.562-1.076,0.562c-0.829,0-1.432-0.708-1.432-1.646c0-1.138,0.741-1.776,1.524-1.776
		c0.582,0,0.9,0.291,1.05,0.58h0.014l0.021-0.51h0.546c-0.019,0.231-0.028,0.51-0.028,0.921V51.097z M60.905,49.549
		c0-0.101-0.01-0.198-0.043-0.268c-0.108-0.36-0.402-0.659-0.853-0.659c-0.582,0-1.004,0.492-1.004,1.277
		c0,0.661,0.34,1.21,0.999,1.21c0.383,0,0.726-0.239,0.85-0.623c0.033-0.108,0.051-0.224,0.051-0.33V49.549z"/>
	<path fill="#FFFFFF" d="M62.574,49.273c0-0.401,0-0.739-0.026-1.05h0.541l0.025,0.666h0.016c0.157-0.458,0.536-0.736,0.947-0.736
		c0.062,0,0.108,0.003,0.168,0.006v0.584c-0.062-0.01-0.124-0.01-0.209-0.01c-0.435,0-0.741,0.316-0.823,0.777
		c-0.011,0.079-0.021,0.188-0.021,0.285v1.795h-0.617V49.273z"/>
	<path fill="#FFFFFF" d="M67.285,50.787c0,0.286,0.016,0.574,0.047,0.804h-0.549l-0.049-0.425h-0.021
		c-0.19,0.265-0.551,0.499-1.03,0.499c-0.682,0-1.029-0.476-1.029-0.963c0-0.815,0.721-1.264,2.023-1.254v-0.071
		c0-0.269-0.074-0.778-0.762-0.775c-0.322,0-0.649,0.09-0.886,0.25l-0.14-0.407c0.276-0.172,0.69-0.291,1.11-0.291
		c1.037,0,1.284,0.698,1.284,1.367V50.787z M66.693,49.876c-0.672-0.018-1.427,0.101-1.427,0.752c0,0.406,0.261,0.587,0.569,0.587
		c0.445,0,0.731-0.278,0.829-0.563c0.023-0.07,0.028-0.145,0.028-0.196V49.876z"/>
	<path fill="#FFFFFF" d="M71.276,46.645v4.078c0,0.294,0.016,0.639,0.03,0.868H70.76l-0.033-0.582h-0.018
		c-0.178,0.376-0.585,0.656-1.133,0.656c-0.812,0-1.45-0.689-1.45-1.712c-0.007-1.117,0.701-1.8,1.512-1.8
		c0.525,0,0.862,0.242,1.02,0.505h0.016v-2.014H71.276z M70.673,49.59c0-0.071-0.011-0.177-0.031-0.257
		c-0.093-0.379-0.427-0.7-0.886-0.7c-0.633,0-1.009,0.559-1.009,1.295c0,0.682,0.345,1.241,0.993,1.241
		c0.412,0,0.791-0.276,0.901-0.727c0.021-0.085,0.031-0.165,0.031-0.266V49.59z"/>
	<path fill="#FFFFFF" d="M75.212,50.666c0,0.351,0.013,0.659,0.033,0.925H74.7l-0.03-0.551h-0.016
		c-0.157,0.272-0.521,0.625-1.12,0.625c-0.525,0-1.164-0.296-1.164-1.473v-1.969h0.621v1.861c0,0.638,0.195,1.076,0.746,1.076
		c0.412,0,0.698-0.291,0.813-0.569c0.034-0.085,0.052-0.19,0.052-0.307v-2.062h0.61V50.666z"/>
	<path fill="#FFFFFF" d="M78.696,50.787c0,0.286,0.016,0.574,0.052,0.804h-0.557l-0.041-0.425h-0.021
		c-0.196,0.265-0.554,0.499-1.035,0.499c-0.68,0-1.03-0.476-1.03-0.963c0-0.815,0.727-1.264,2.029-1.254v-0.071
		c0-0.269-0.077-0.778-0.768-0.775c-0.319,0-0.651,0.09-0.88,0.25l-0.145-0.407c0.278-0.172,0.695-0.291,1.115-0.291
		c1.032,0,1.279,0.698,1.279,1.367V50.787z M78.109,49.876c-0.675-0.018-1.435,0.101-1.435,0.752c0,0.406,0.268,0.587,0.569,0.587
		c0.45,0,0.736-0.278,0.829-0.563c0.025-0.07,0.036-0.145,0.036-0.196V49.876z"/>
	<path fill="#FFFFFF" d="M80.493,47.417v0.807h0.878v0.458h-0.878v1.825c0,0.414,0.121,0.654,0.464,0.654
		c0.159,0,0.262-0.016,0.354-0.039l0.023,0.461c-0.116,0.046-0.307,0.082-0.538,0.082c-0.293,0-0.52-0.095-0.664-0.252
		c-0.167-0.19-0.237-0.492-0.237-0.889v-1.843h-0.52v-0.458h0.52v-0.629L80.493,47.417z"/>
	<path fill="#FFFFFF" d="M82.459,50.015c0.011,0.832,0.536,1.175,1.153,1.175c0.433,0,0.708-0.08,0.93-0.176l0.11,0.436
		c-0.211,0.098-0.587,0.216-1.117,0.216c-1.045,0-1.663-0.689-1.663-1.701c0-1.018,0.598-1.811,1.581-1.811
		c1.107,0,1.391,0.958,1.391,1.578c0,0.127-0.008,0.219-0.021,0.283H82.459z M84.254,49.58c0.005-0.384-0.16-0.986-0.85-0.986
		c-0.628,0-0.889,0.566-0.945,0.986H84.254z"/>
	<path fill="#FFFFFF" d="M87.223,50.852c0.27,0.178,0.658,0.31,1.076,0.31c0.62,0,0.98-0.33,0.98-0.804
		c0-0.43-0.244-0.685-0.883-0.924c-0.772-0.273-1.241-0.68-1.241-1.334c0-0.736,0.607-1.277,1.52-1.277
		c0.471,0,0.828,0.113,1.032,0.225l-0.173,0.502c-0.146-0.093-0.458-0.229-0.886-0.229c-0.636,0-0.875,0.384-0.875,0.708
		c0,0.436,0.28,0.649,0.93,0.901c0.787,0.309,1.187,0.695,1.187,1.385c0,0.721-0.53,1.352-1.635,1.352
		c-0.451,0-0.947-0.136-1.195-0.304L87.223,50.852z"/>
	<path fill="#FFFFFF" d="M91.52,47.417v0.807h0.88v0.458h-0.88v1.825c0,0.414,0.118,0.654,0.463,0.654
		c0.165,0,0.266-0.016,0.353-0.039l0.028,0.461c-0.115,0.046-0.306,0.082-0.543,0.082c-0.285,0-0.515-0.095-0.661-0.252
		c-0.168-0.19-0.237-0.492-0.237-0.889v-1.843H90.4v-0.458h0.522v-0.629L91.52,47.417z"/>
	<path fill="#FFFFFF" d="M96.007,50.666c0,0.351,0.005,0.659,0.025,0.925h-0.546l-0.036-0.551h-0.007
		c-0.157,0.272-0.516,0.625-1.115,0.625c-0.527,0-1.158-0.296-1.158-1.473v-1.969h0.607v1.861c0,0.638,0.195,1.076,0.749,1.076
		c0.417,0,0.697-0.291,0.809-0.569c0.033-0.085,0.054-0.19,0.054-0.307v-2.062h0.618V50.666z"/>
	<path fill="#FFFFFF" d="M100.021,46.645v4.078c0,0.294,0.016,0.639,0.031,0.868h-0.544l-0.028-0.582h-0.022
		c-0.178,0.376-0.582,0.656-1.131,0.656c-0.815,0-1.449-0.689-1.449-1.712c-0.01-1.117,0.695-1.8,1.509-1.8
		c0.525,0,0.865,0.242,1.017,0.505h0.014v-2.014H100.021z M99.417,49.59c0-0.071-0.003-0.177-0.026-0.257
		c-0.093-0.379-0.422-0.7-0.886-0.7c-0.636,0-1.007,0.559-1.007,1.295c0,0.682,0.338,1.241,0.991,1.241
		c0.407,0,0.791-0.276,0.901-0.727c0.023-0.085,0.026-0.165,0.026-0.266V49.59z"/>
	<path fill="#FFFFFF" d="M101.481,50.015c0.021,0.832,0.541,1.175,1.158,1.175c0.44,0,0.714-0.08,0.935-0.176l0.111,0.436
		c-0.217,0.098-0.59,0.216-1.128,0.216c-1.04,0-1.661-0.689-1.661-1.701c0-1.018,0.605-1.811,1.589-1.811
		c1.103,0,1.391,0.958,1.391,1.578c0,0.127-0.011,0.219-0.021,0.283H101.481z M103.278,49.58c0.011-0.384-0.162-0.986-0.847-0.986
		c-0.623,0-0.889,0.566-0.94,0.986H103.278z"/>
	<path fill="#FFFFFF" d="M104.73,49.137c0-0.357-0.005-0.638-0.031-0.913h0.544l0.038,0.556h0.013
		c0.168-0.316,0.56-0.626,1.115-0.626c0.464,0,1.187,0.278,1.187,1.427v2.011h-0.612v-1.944c0-0.538-0.195-0.991-0.775-0.991
		c-0.398,0-0.71,0.283-0.823,0.626c-0.026,0.069-0.036,0.175-0.036,0.283v2.026h-0.618V49.137z"/>
	<path fill="#FFFFFF" d="M109.403,47.417v0.807h0.875v0.458h-0.875v1.825c0,0.414,0.116,0.654,0.458,0.654
		c0.168,0,0.261-0.016,0.354-0.039l0.03,0.461c-0.123,0.046-0.307,0.082-0.546,0.082c-0.283,0-0.515-0.095-0.659-0.252
		c-0.17-0.19-0.236-0.492-0.236-0.889v-1.843h-0.525v-0.458h0.525v-0.629L109.403,47.417z"/>
	<path fill="#FFFFFF" d="M116.239,51.385c-0.273,0.103-0.813,0.255-1.45,0.255c-0.71,0-1.295-0.178-1.753-0.623
		c-0.406-0.389-0.654-1.01-0.654-1.743c0-1.397,0.969-2.428,2.544-2.428c0.543,0,0.974,0.126,1.172,0.219l-0.152,0.5
		c-0.25-0.121-0.562-0.209-1.04-0.209c-1.143,0-1.882,0.713-1.882,1.89c0,1.192,0.708,1.89,1.808,1.89
		c0.398,0,0.672-0.052,0.811-0.121v-1.396h-0.947v-0.491h1.545V51.385z"/>
	<path fill="#FFFFFF" d="M120.317,49.884c0,1.241-0.87,1.781-1.679,1.781c-0.898,0-1.612-0.664-1.612-1.735
		c0-1.114,0.742-1.776,1.672-1.776C119.663,48.153,120.317,48.852,120.317,49.884 M117.652,49.912c0,0.739,0.423,1.298,1.018,1.298
		c0.581,0,1.024-0.557,1.024-1.311c0-0.566-0.288-1.295-1.015-1.295C117.968,48.604,117.652,49.281,117.652,49.912"/>
	<path fill="#FFFFFF" d="M121.377,48.224l0.659,1.887c0.113,0.312,0.201,0.592,0.272,0.865h0.021
		c0.075-0.273,0.176-0.554,0.289-0.865l0.653-1.887h0.642l-1.326,3.367h-0.582l-1.282-3.367H121.377z"/>
	<path fill="#FFFFFF" d="M124.861,50.015c0.013,0.832,0.533,1.175,1.156,1.175c0.433,0,0.705-0.08,0.93-0.176l0.113,0.436
		c-0.217,0.098-0.595,0.216-1.131,0.216c-1.035,0-1.658-0.689-1.658-1.701c0-1.018,0.603-1.811,1.581-1.811
		c1.112,0,1.4,0.958,1.4,1.578c0,0.127-0.016,0.219-0.03,0.283H124.861z M126.65,49.58c0.014-0.384-0.154-0.986-0.844-0.986
		c-0.629,0-0.892,0.566-0.942,0.986H126.65z"/>
	<path fill="#FFFFFF" d="M128.1,49.273c0-0.401-0.006-0.739-0.023-1.05h0.533l0.03,0.666h0.023c0.149-0.458,0.527-0.736,0.938-0.736
		c0.059,0,0.113,0.003,0.164,0.006v0.584c-0.062-0.01-0.123-0.01-0.206-0.01c-0.427,0-0.741,0.316-0.823,0.777
		c-0.011,0.079-0.021,0.188-0.021,0.285v1.795H128.1V49.273z"/>
	<path fill="#FFFFFF" d="M130.504,49.137c0-0.357-0.008-0.638-0.025-0.913h0.538l0.041,0.556h0.01
		c0.17-0.316,0.557-0.626,1.112-0.626c0.469,0,1.195,0.278,1.195,1.427v2.011h-0.621v-1.944c0-0.538-0.192-0.991-0.777-0.991
		c-0.394,0-0.708,0.283-0.818,0.626c-0.028,0.069-0.039,0.175-0.039,0.283v2.026h-0.615V49.137z"/>
	<path fill="#FFFFFF" d="M134.466,49.137c0-0.357-0.015-0.638-0.03-0.913h0.538l0.033,0.548h0.021
		c0.181-0.327,0.489-0.618,1.061-0.618c0.448,0,0.799,0.278,0.945,0.675h0.018c0.105-0.195,0.24-0.335,0.382-0.438
		c0.205-0.152,0.419-0.237,0.738-0.237c0.451,0,1.109,0.291,1.109,1.465v1.973h-0.597v-1.902c0-0.651-0.242-1.033-0.731-1.033
		c-0.355,0-0.62,0.258-0.726,0.552c-0.031,0.087-0.055,0.19-0.055,0.304v2.08h-0.6v-2.019c0-0.535-0.234-0.917-0.7-0.917
		c-0.376,0-0.664,0.305-0.76,0.605c-0.033,0.088-0.049,0.195-0.049,0.304v2.026h-0.598V49.137z"/>
	<path fill="#FFFFFF" d="M140.712,50.015c0.011,0.832,0.536,1.175,1.159,1.175c0.433,0,0.705-0.08,0.927-0.176l0.113,0.436
		c-0.217,0.098-0.593,0.216-1.133,0.216c-1.038,0-1.653-0.689-1.653-1.701c0-1.018,0.598-1.811,1.586-1.811
		c1.107,0,1.391,0.958,1.391,1.578c0,0.127-0.011,0.219-0.025,0.283H140.712z M142.51,49.58c0.01-0.384-0.16-0.986-0.85-0.986
		c-0.631,0-0.892,0.566-0.938,0.986H142.51z"/>
	<path fill="#FFFFFF" d="M143.952,49.137c0-0.357,0-0.638-0.025-0.913h0.545l0.036,0.556h0.016c0.165-0.316,0.562-0.626,1.112-0.626
		c0.469,0,1.192,0.278,1.192,1.427v2.011h-0.621v-1.944c0-0.538-0.192-0.991-0.777-0.991c-0.394,0-0.71,0.283-0.813,0.626
		c-0.033,0.069-0.049,0.175-0.049,0.283v2.026h-0.615V49.137z"/>
	<path fill="#FFFFFF" d="M148.627,47.417v0.807h0.88v0.458h-0.88v1.825c0,0.414,0.121,0.654,0.463,0.654
		c0.165,0,0.263-0.016,0.355-0.039l0.021,0.461c-0.113,0.046-0.301,0.082-0.541,0.082c-0.283,0-0.515-0.095-0.664-0.252
		c-0.159-0.19-0.231-0.492-0.231-0.889v-1.843h-0.525v-0.458h0.525v-0.629L148.627,47.417z"/>
</g>
</svg>
